Format : AVI
Format/Info : Audio Video Interleave
File size : 1.34 GiB
Duration : 1h 34mn
Overall bit rate : 2 034 Kbps
Writing application : Lavf52.47.0
Writing library : VirtualDub build 32839/release

Video
ID : 0
Format : MPEG-4 Visual
Format profile : Advanced Simple@L5
Format settings, BVOP : 2
Format settings, QPel : No
Format settings, GMC : No warppoints
Format settings, Matrix : Default (H.263)
Muxing mode : Packed bitstream
Codec ID : XVID
Codec ID/Hint : XviD
Duration : 1h 34mn
Bit rate : 1 893 Kbps
Width : 640 pixels
Height : 360 pixels
Display aspect ratio : 16:9
Frame rate : 25.000 fps
Color space : YUV
Chroma subsampling : 4:2:0
Bit depth : 8 bits
Scan type : Progressive
Compression mode : Lossy
Bits/(Pixel*Frame) : 0.329
Stream size : 1.25 GiB (93%)
Writing library : XviD 63

Audio
ID : 1
Format : MPEG Audio
Format version : Version 1
Format profile : Layer 3
Mode : Joint stereo
Mode extension : MS Stereo
Codec ID : 55
Codec ID/Hint : MP3
Duration : 1h 34mn
Bit rate mode : Constant
Bit rate : 128 Kbps
Channel(s) : 2 channels
Sampling rate : 44.1 KHz
Compression mode : Lossy
Stream size : 86.3 MiB (6%)
Alignment : Aligned on interleaves
Interleave, duration : 26 ms (0.65 video frame)
Interleave, preload duration : 522 ms
Writing library : LAME3.98.2


 
http://www.imdb.com/title/tt0401462/







Storyline

This sci-fi thriller explores the journey of the "Other Ones" and thrie search for a mysterious new super drug and it's illusuve creator Oprheum. Loaded and guided only by "The Orifice" the "Other Ones" must decide which one of them is destined to discover the secrets of The Helix.
















Source no idea ...Nogrp But thanks to whoever

Someone asked for this so here it is copy wasnt the best so sorted it best i could ...

Enjoy !



Greetz to Imagine ,Flawl3ss,DiLLoN,BDK,NOiR,TOXiCiNK,THC,Ez,Rx,Boobyblue,TaRiQ786,LKRG
